<svg xmlns="http://www.w3.org/2000/svg" width="640" height="300" viewBox="0 0 640 300"><defs><filter id="wash" width="680" height="340" x="-20" y="-20" filterUnits="userSpaceOnUse"><feTurbulence baseFrequency=".035" numOctaves="3" result="warp" seed="7" type="fractalNoise"/><feDisplacementMap in="SourceGraphic" in2="warp" result="bled" scale="9" xChannelSelector="R" yChannelSelector="G"/><feGaussianBlur in="bled" result="soft" stdDeviation=".8"/><feTurbulence baseFrequency=".9" numOctaves="2" result="grain" seed="3" type="fractalNoise"/><feColorMatrix in="grain" result="grainTint" type="matrix" values="0 0 0 0 0.6 0 0 0 0 0.57 0 0 0 0 0.55 0 0 0 -0.45 0.5"/><feComposite in="grainTint" in2="soft" operator="in" result="grainIn"/><feBlend in="soft" in2="grainIn" mode="multiply" result="granulated"/><feMorphology in="bled" operator="erode" radius="2.2" result="inner"/><feComposite in="bled" in2="inner" operator="out" result="rim"/><feGaussianBlur in="rim" result="rimSoft" stdDeviation=".9"/><feColorMatrix in="rimSoft" result="rimDark" type="matrix" values="0.8 0 0 0 0 0 0.8 0 0 0 0 0 0.8 0 0 0 0 0 0.55 0"/><feMerge><feMergeNode in="granulated"/><feMergeNode in="rimDark"/></feMerge></filter><filter id="brush" width="680" height="340" x="-20" y="-20" filterUnits="userSpaceOnUse"><feTurbulence baseFrequency=".06" numOctaves="2" result="n" seed="11" type="fractalNoise"/><feDisplacementMap in="SourceGraphic" in2="n" result="d" scale="3.5" xChannelSelector="R" yChannelSelector="G"/><feGaussianBlur in="d" stdDeviation=".35"/></filter><filter id="bloom" width="680" height="340" x="-20" y="-20" filterUnits="userSpaceOnUse"><feTurbulence baseFrequency=".02" numOctaves="2" result="w" seed="21" type="fractalNoise"/><feDisplacementMap in="SourceGraphic" in2="w" result="d" scale="22" xChannelSelector="R" yChannelSelector="G"/><feGaussianBlur in="d" stdDeviation="6"/></filter></defs><g filter="url(#bloom)" opacity=".5"><ellipse cx="120" cy="150" fill="#d3e3ee" rx="100" ry="90"/><ellipse cx="330" cy="140" fill="#f3e8cc" rx="110" ry="80"/><ellipse cx="530" cy="160" fill="#d4e6dc" rx="100" ry="90"/></g><g filter="url(#wash)"><rect width="90" height="110" x="40" y="100" fill="#b9d3e6" opacity=".8" rx="8"/></g><g fill="none" stroke="#8792a3" stroke-linecap="round" stroke-linejoin="round" stroke-width="2.2" filter="url(#brush)" opacity=".6"><path d="M60 130 h50 M60 150 h36"/></g><g filter="url(#wash)"><rect width="76" height="50" x="190" y="88" fill="#f7eacb" opacity=".95" rx="4"/><path fill="#f4dca8" d="M190 88 l38.0 27.500000000000004 l38.0 -27.500000000000004 z" opacity=".85"/><rect width="76" height="50" x="206" y="150" fill="#f7eacb" opacity=".95" rx="4"/><path fill="#f4dca8" d="M206 150 l38.0 27.500000000000004 l38.0 -27.500000000000004 z" opacity=".85"/></g><g fill="none" stroke="#9a8b7a" stroke-linecap="round" stroke-linejoin="round" stroke-width="2" filter="url(#brush)" opacity=".6"><path d="M150 74 h20 M150 110 h20 M152 74 q10 18 8 18 q-10 0 8 18"/></g><g filter="url(#wash)"><circle cx="252" cy="100" r="7" fill="#a9c7a1" opacity=".95"/><circle cx="268" cy="162" r="7" fill="#a9c7a1" opacity=".95"/></g><g fill="none" stroke="#6f8a74" stroke-linecap="round" stroke-linejoin="round" stroke-width="2" filter="url(#brush)" opacity=".75"><path d="M259 100 h14 v5 M280 100 v4"/><path d="M275 162 h14 v5 M296 162 v4"/></g><g fill="none" stroke="#8792a3" stroke-linecap="round" stroke-linejoin="round" stroke-width="2.2" filter="url(#brush)" opacity=".55"><path d="M300 115 Q340.0 127.5 380 140"/><path d="M373.7 133.6 L380 140 L371.2 141.7"/><path d="M310 178 Q345.0 169.0 380 160"/><path d="M371.3 157.9 L380 160 L373.4 166.1"/></g><g filter="url(#wash)"><rect width="110" height="130" x="390" y="90" fill="#cdbfe0" opacity=".8" rx="8"/></g><g fill="none" stroke="#6f8a74" stroke-dasharray="6 7" stroke-linecap="round" stroke-linejoin="round" stroke-width="2" filter="url(#brush)" opacity=".55"><path d="M392 196 Q365.7 233.5 320 236"/><path d="M328.2 239.8 L320 236 L327.7 231.3"/></g><g filter="url(#wash)"><path fill="#cfe4de" d="M530 150 q0 -10 10 -10 h52 q10 0 10 10 v60 q0 12 -12 12 h-48 q-12 0 -12 -12 z" opacity=".8"/><circle cx="566" cy="200" r="14" fill="#f4dca8" opacity=".95"/></g><g fill="none" stroke="#8792a3" stroke-linecap="round" stroke-linejoin="round" stroke-width="2" filter="url(#brush)" opacity=".55"><path d="M504 160 Q516.0 168.0 528 176"/><path d="M523.7 168.1 L528 176 L519.0 175.1"/></g><g filter="url(#wash)" opacity=".5"><circle cx="170" cy="250" r="3" fill="#f2c9a9" opacity="1"/><circle cx="620" cy="80" r="3" fill="#bcd4b4" opacity="1"/><circle cx="360" cy="50" r="3" fill="#b9d3e6" opacity="1"/></g></svg>