<svg xmlns="http://www.w3.org/2000/svg" width="640" height="300" viewBox="0 0 640 300"><defs><filter id="wash" width="680" height="340" x="-20" y="-20" filterUnits="userSpaceOnUse"><feTurbulence baseFrequency=".035" numOctaves="3" result="warp" seed="7" type="fractalNoise"/><feDisplacementMap in="SourceGraphic" in2="warp" result="bled" scale="9" xChannelSelector="R" yChannelSelector="G"/><feGaussianBlur in="bled" result="soft" stdDeviation=".8"/><feTurbulence baseFrequency=".9" numOctaves="2" result="grain" seed="3" type="fractalNoise"/><feColorMatrix in="grain" result="grainTint" type="matrix" values="0 0 0 0 0.6 0 0 0 0 0.57 0 0 0 0 0.55 0 0 0 -0.45 0.5"/><feComposite in="grainTint" in2="soft" operator="in" result="grainIn"/><feBlend in="soft" in2="grainIn" mode="multiply" result="granulated"/><feMorphology in="bled" operator="erode" radius="2.2" result="inner"/><feComposite in="bled" in2="inner" operator="out" result="rim"/><feGaussianBlur in="rim" result="rimSoft" stdDeviation=".9"/><feColorMatrix in="rimSoft" result="rimDark" type="matrix" values="0.8 0 0 0 0 0 0.8 0 0 0 0 0 0.8 0 0 0 0 0 0.55 0"/><feMerge><feMergeNode in="granulated"/><feMergeNode in="rimDark"/></feMerge></filter><filter id="brush" width="680" height="340" x="-20" y="-20" filterUnits="userSpaceOnUse"><feTurbulence baseFrequency=".06" numOctaves="2" result="n" seed="11" type="fractalNoise"/><feDisplacementMap in="SourceGraphic" in2="n" result="d" scale="3.5" xChannelSelector="R" yChannelSelector="G"/><feGaussianBlur in="d" stdDeviation=".35"/></filter><filter id="bloom" width="680" height="340" x="-20" y="-20" filterUnits="userSpaceOnUse"><feTurbulence baseFrequency=".02" numOctaves="2" result="w" seed="21" type="fractalNoise"/><feDisplacementMap in="SourceGraphic" in2="w" result="d" scale="22" xChannelSelector="R" yChannelSelector="G"/><feGaussianBlur in="d" stdDeviation="6"/></filter></defs><g filter="url(#bloom)" opacity=".5"><ellipse cx="120" cy="150" fill="#d3e3ee" rx="100" ry="90"/><ellipse cx="360" cy="110" fill="#d4e6dc" rx="120" ry="70"/><ellipse cx="430" cy="230" fill="#f3e8cc" rx="140" ry="50"/></g><g filter="url(#wash)"><rect width="120" height="90" x="40" y="100" fill="#b9d3e6" opacity=".8" rx="8"/><rect width="32" height="18" x="84" y="190" fill="#9dbfd8" opacity=".8" rx="3"/></g><g filter="url(#wash)"><rect width="88" height="16" x="56" y="130" fill="#f7eacb" opacity=".95" rx="4"/></g><g filter="url(#wash)"><rect width="170" height="120" x="300" y="40" fill="#bcd4b4" opacity=".8" rx="8"/><circle cx="350" cy="100" r="22" fill="#a9c7a1" opacity=".9"/><circle cx="420" cy="96" r="16" fill="#a9c7a1" opacity=".9"/></g><g fill="none" stroke="#6f8a74" stroke-linecap="round" stroke-linejoin="round" stroke-width="2" filter="url(#brush)" opacity=".6"><path d="M375.0 100.0 L381.0 100.0"/><path d="M367.7 117.7 L371.9 121.9"/><path d="M350.0 125.0 L350.0 131.0"/><path d="M332.3 117.7 L328.1 121.9"/><path d="M325.0 100.0 L319.0 100.0"/><path d="M332.3 82.3 L328.1 78.1"/><path d="M350.0 75.0 L350.0 69.0"/><path d="M367.7 82.3 L371.9 78.1"/><path d="M439.0 96.0 L445.0 96.0"/><path d="M433.4 109.4 L437.7 113.7"/><path d="M420.0 115.0 L420.0 121.0"/><path d="M406.6 109.4 L402.3 113.7"/><path d="M401.0 96.0 L395.0 96.0"/><path d="M406.6 82.6 L402.3 78.3"/><path d="M420.0 77.0 L420.0 71.0"/><path d="M433.4 82.6 L437.7 78.3"/></g><g fill="none" stroke="#8792a3" stroke-linecap="round" stroke-linejoin="round" stroke-width="2.2" filter="url(#brush)" opacity=".55"><path d="M166 124 Q226.0 96.3 292 96"/><path d="M284.0 91.8 L292 96 L284.1 100.3"/></g><g filter="url(#wash)"><rect width="250" height="64" x="300" y="196" fill="#f4dca8" opacity=".85" rx="8"/></g><g fill="none" stroke="#9a8b7a" stroke-linecap="round" stroke-linejoin="round" stroke-width="1.8" filter="url(#brush)" opacity=".6"><path d="M318 214 h180"/><path d="M318 228 h150"/><path d="M318 242 h200"/></g><g fill="none" stroke="#8792a3" stroke-linecap="round" stroke-linejoin="round" stroke-width="2.2" filter="url(#brush)" opacity=".55"><path d="M294 226 Q226.2 210.8 170 170"/><path d="M174.0 178.1 L170 170 L178.9 171.2"/></g><g fill="none" stroke="#6f8a74" stroke-dasharray="5 6" stroke-linecap="round" stroke-linejoin="round" stroke-width="2" filter="url(#brush)" opacity=".5"><path d="M470 164 Q475.0 178.0 480 192"/><path d="M481.3 183.1 L480 192 L473.3 185.9"/></g><g filter="url(#wash)" opacity=".5"><circle cx="230" cy="40" r="3" fill="#b9d3e6" opacity="1"/><circle cx="600" cy="120" r="4" fill="#bcd4b4" opacity="1"/><circle cx="620" cy="250" r="3" fill="#f4dca8" opacity="1"/></g></svg>